<?xml version="1.0" encoding="UTF-8" standalone="no"?>
<svg
   width="112"
   height="34"
   version="1.1"
   viewBox="0 0 112 34"
   id="svg27"
   sodipodi:docname="menubaritem.svg"
   inkscape:version="1.4 (unknown)"
   xmlns:inkscape="http://www.inkscape.org/namespaces/inkscape"
   xmlns:sodipodi="http://sodipodi.sourceforge.net/DTD/sodipodi-0.dtd"
   xmlns="http://www.w3.org/2000/svg"
   xmlns:svg="http://www.w3.org/2000/svg">
  <defs
     id="defs27" />
  <sodipodi:namedview
     id="namedview27"
     pagecolor="#21133a"
     bordercolor="#6d3fc0"
     borderopacity="1"
     inkscape:showpageshadow="2"
     inkscape:pageopacity="0.0"
     inkscape:pagecheckerboard="true"
     inkscape:deskcolor="#21133a"
     inkscape:zoom="5.821004"
     inkscape:cx="40.800522"
     inkscape:cy="34.616022"
     inkscape:window-width="1920"
     inkscape:window-height="1002"
     inkscape:window-x="0"
     inkscape:window-y="0"
     inkscape:window-maximized="1"
     inkscape:current-layer="svg27"
     showgrid="true">
    <inkscape:grid
       id="grid1"
       units="px"
       originx="0"
       originy="0"
       spacingx="1"
       spacingy="1"
       empcolor="#0099e5"
       empopacity="0.30196078"
       color="#0099e5"
       opacity="0.14902"
       empspacing="5"
       enabled="true"
       visible="true" />
  </sodipodi:namedview>
  <style
     id="current-color-scheme"
     type="text/css">.ColorScheme-ButtonBackground {
            color:#eff0f1;
            stop-color:#eff0f1;
        }
        .ColorScheme-ButtonHover {
            color:#93cee9;
            stop-color:#93cee9;
        }
        .ColorScheme-ButtonFocus{
            color:#3daee9;
            stop-color:#3daee9;
        }</style>
  <g
     id="normal-center"
     transform="translate(-174,-62)">
    <path
       d="m180 68h22v22h-22z"
       fill="transparent"
       fill-rule="evenodd"
       id="path1" />
  </g>
  <g
     id="normal-bottomleft"
     transform="matrix(2.5,0,0,2.5,0,-41)"
     fill-rule="evenodd">
    <path
       d="m0 28c0 1.108 0.892 2 2 2v-2z"
       fill="transparent"
       id="path2" />
  </g>
  <g
     id="normal-bottom"
     transform="matrix(1,0,0,2.5,2,-41)"
     fill-rule="evenodd">
    <path
       transform="scale(-1)"
       d="m-26-30h22v2h-22z"
       fill="transparent"
       id="path3" />
  </g>
  <g
     id="normal-topleft"
     transform="matrix(2.5,0,0,-2.5,0,75)"
     fill-rule="evenodd">
    <path
       d="m0 28c0 1.108 0.892 2 2 2v-2z"
       fill="transparent"
       id="path4" />
  </g>
  <g
     id="normal-top"
     transform="matrix(1,0,0,-2.5,2,75)"
     fill-rule="evenodd">
    <path
       transform="scale(-1)"
       d="m-26-30h22v2h-22z"
       fill="transparent"
       id="path5" />
  </g>
  <g
     id="normal-topright"
     transform="matrix(0,2.5,2.5,0,-41,0)"
     fill-rule="evenodd">
    <path
       d="m0 28c0 1.108 0.892 2 2 2v-2z"
       fill="transparent"
       id="path6" />
  </g>
  <g
     id="normal-right"
     transform="matrix(0,1,2.5,0,-41,2)"
     fill-rule="evenodd">
    <path
       transform="scale(-1)"
       d="m-26-30h22v2h-22z"
       fill="transparent"
       id="path7" />
  </g>
  <g
     id="normal-bottomright"
     transform="matrix(-1,0,0,1,34,4)"
     fill-rule="evenodd">
    <path
       d="m0 25c0 2.77 2.23 5 5 5v-5z"
       fill="transparent"
       stroke-width="2.5"
       id="path8" />
  </g>
  <g
     id="normal-left"
     transform="matrix(0,1,-2.5,0,75,2)"
     fill-rule="evenodd">
    <path
       transform="scale(-1)"
       d="m-26-30h22v2h-22z"
       fill="transparent"
       id="path9" />
  </g>
  <path
     id="normal-hint-top-margin"
     d="m16 0h2v6h-2z"
     fill="#ed333b"
     fill-rule="evenodd"
     style="fill:#7137c8" />
  <path
     id="normal-hint-bottom-margin"
     d="m16 28h2v6h-2z"
     fill="#ed333b"
     fill-rule="evenodd"
     style="fill:#7137c8" />
  <path
     id="normal-hint-left-margin"
     d="m0 16h6v2h-6z"
     fill="#ed333b"
     fill-rule="evenodd"
     style="fill:#7137c8" />
  <path
     id="normal-hint-right-margin"
     d="m28 16h6v2h-6z"
     fill="#ed333b"
     fill-rule="evenodd"
     style="fill:#7137c8" />
  <g
     id="hover-center"
     transform="translate(-72,-138)">
    <path
       class="ColorScheme-Text"
       d="m118 144h22v22h-22z"
       fill="currentColor"
       fill-rule="evenodd"
       opacity=".2"
       id="path10" />
  </g>
  <g
     id="hover-bottomleft"
     transform="matrix(2.5,0,0,2.5,40,-41)"
     fill-rule="evenodd">
    <path
       class="ColorScheme-Text"
       transform="matrix(.4 0 0 .4 -16 16.4)"
       d="m40 29c0 2.77 2.23 5 5 5v-5h-5z"
       fill="currentColor"
       opacity=".2"
       id="path11" />
  </g>
  <g
     id="hover-bottom"
     transform="matrix(1,0,0,2.5,42,-41)"
     fill-rule="evenodd">
    <path
       class="ColorScheme-Text"
       transform="scale(-1)"
       d="m-26-30h22v2h-22z"
       fill="currentColor"
       opacity=".2"
       id="path12" />
  </g>
  <g
     id="hover-topleft"
     transform="matrix(2.5,0,0,-2.5,40,75)"
     fill-rule="evenodd">
    <path
       class="ColorScheme-Text"
       transform="matrix(.4 0 0 -.4 -16 30)"
       d="m45 0c-2.77 0-5 2.23-5 5h5v-5z"
       fill="currentColor"
       opacity=".2"
       id="path13" />
  </g>
  <g
     id="hover-top"
     transform="matrix(1,0,0,-2.5,42,75)"
     fill-rule="evenodd">
    <path
       class="ColorScheme-Text"
       transform="scale(-1)"
       d="m-26-30h22v2h-22z"
       fill="currentColor"
       opacity=".2"
       id="path14" />
  </g>
  <g
     id="hover-topright"
     transform="matrix(0,2.5,2.5,0,-1,0)"
     fill-rule="evenodd">
    <path
       class="ColorScheme-Text"
       transform="matrix(0 .4 .4 0 0 .4)"
       d="m69 0v5h5c0-2.77-2.23-5-5-5z"
       fill="currentColor"
       opacity=".2"
       id="path15" />
  </g>
  <g
     id="hover-right"
     transform="matrix(0,1,2.5,0,-1,2)"
     fill-rule="evenodd">
    <path
       class="ColorScheme-Text"
       transform="scale(-1)"
       d="m-26-30h22v2h-22z"
       fill="currentColor"
       opacity=".2"
       id="path16" />
  </g>
  <g
     id="hover-bottomright"
     transform="matrix(-2.5,0,0,2.5,74,-41)"
     fill-rule="evenodd">
    <path
       class="ColorScheme-Text"
       transform="matrix(-.4 0 0 .4 29.6 16.4)"
       d="m69 29v5c2.77 0 5-2.23 5-5h-5z"
       fill="currentColor"
       opacity=".2"
       id="path17" />
  </g>
  <g
     id="hover-left"
     transform="matrix(0,1,-2.5,0,115,2)"
     fill-rule="evenodd">
    <path
       class="ColorScheme-Text"
       transform="scale(-1)"
       d="m-26-30h22v2h-22z"
       fill="currentColor"
       opacity=".2"
       id="path18" />
  </g>
  <path
     id="hover-hint-top-margin"
     d="m56 0h2v6h-2z"
     fill="#ed333b"
     fill-rule="evenodd"
     style="fill:#7137c8" />
  <path
     id="hover-hint-bottom-margin"
     d="m56 28h2v6h-2z"
     fill="#ed333b"
     fill-rule="evenodd"
     style="fill:#7137c8" />
  <path
     id="hover-hint-left-margin"
     d="m40 16h6v2h-6z"
     fill="#ed333b"
     fill-rule="evenodd"
     style="fill:#7137c8" />
  <path
     id="hover-hint-right-margin"
     d="m68 16h6v2h-6z"
     fill="#ed333b"
     fill-rule="evenodd"
     style="fill:#7137c8" />
  <g
     id="pressed-center"
     transform="translate(-34,-138)">
    <path
       class="ColorScheme-Text"
       d="m118 144h22v22h-22z"
       fill="currentColor"
       fill-rule="evenodd"
       opacity=".3"
       id="path19" />
  </g>
  <g
     id="pressed-bottomleft"
     transform="matrix(2.5,0,0,2.5,78,-41)"
     fill-rule="evenodd">
    <path
       class="ColorScheme-Text"
       transform="matrix(.4 0 0 .4 -31.2 16.4)"
       d="m78 29c0 2.77 2.23 5 5 5v-5h-5z"
       fill="currentColor"
       opacity=".3"
       id="path20" />
  </g>
  <g
     id="pressed-bottom"
     transform="matrix(1,0,0,2.5,80,-41)"
     fill-rule="evenodd">
    <path
       class="ColorScheme-Text"
       transform="scale(-1)"
       d="m-26-30h22v2h-22z"
       fill="currentColor"
       opacity=".3"
       id="path21" />
  </g>
  <g
     id="pressed-topleft"
     transform="matrix(2.5,0,0,-2.5,78,75)"
     fill-rule="evenodd">
    <path
       class="ColorScheme-Text"
       transform="matrix(.4 0 0 -.4 -31.2 30)"
       d="m83 0c-2.77 0-5 2.23-5 5h5v-5z"
       fill="currentColor"
       opacity=".3"
       id="path22" />
  </g>
  <g
     id="pressed-top"
     transform="matrix(1,0,0,-2.5,80,75)"
     fill-rule="evenodd">
    <path
       class="ColorScheme-Text"
       transform="scale(-1)"
       d="m-26-30h22v2h-22z"
       fill="currentColor"
       opacity=".3"
       id="path23" />
  </g>
  <g
     id="pressed-topright"
     transform="matrix(0,2.5,2.5,0,37,0)"
     fill-rule="evenodd">
    <path
       class="ColorScheme-Text"
       transform="matrix(0 .4 .4 0 0 -14.8)"
       d="m107 0v5h5c0-2.77-2.23-5-5-5z"
       fill="currentColor"
       opacity=".3"
       id="path24" />
  </g>
  <g
     id="pressed-right"
     transform="matrix(0,1,2.5,0,37,2)"
     fill-rule="evenodd">
    <path
       class="ColorScheme-Text"
       transform="scale(-1)"
       d="m-26-30h22v2h-22z"
       fill="currentColor"
       opacity=".3"
       id="path25" />
  </g>
  <g
     id="pressed-bottomright"
     transform="matrix(-2.5,0,0,2.5,112,-41)"
     fill-rule="evenodd">
    <path
       class="ColorScheme-Text"
       transform="matrix(-.4 0 0 .4 44.8 16.4)"
       d="m107 29v5c2.77 0 5-2.23 5-5h-5z"
       fill="currentColor"
       opacity=".3"
       id="path26" />
  </g>
  <g
     id="pressed-left"
     transform="matrix(0,1,-2.5,0,153,2)"
     fill-rule="evenodd">
    <path
       class="ColorScheme-Text"
       transform="scale(-1)"
       d="m-26-30h22v2h-22z"
       fill="currentColor"
       opacity=".3"
       id="path27" />
  </g>
  <path
     id="pressed-hint-top-margin"
     d="m94 0h2v6h-2z"
     fill="#ed333b"
     fill-rule="evenodd"
     style="fill:#7137c8" />
  <path
     id="pressed-hint-bottom-margin"
     d="m94 28h2v6h-2z"
     fill="#ed333b"
     fill-rule="evenodd"
     style="fill:#7137c8" />
  <path
     id="pressed-hint-left-margin"
     d="m78 16h6v2h-6z"
     fill="#ed333b"
     fill-rule="evenodd"
     style="fill:#7137c8" />
  <path
     id="pressed-hint-right-margin"
     d="m106 16h6v2h-6z"
     fill="#ed333b"
     fill-rule="evenodd"
     style="fill:#7137c8" />
</svg>
