<?xml version="1.0" encoding="UTF-8" standalone="no"?>
<svg
   id="svg4"
   version="1.1"
   viewBox="0 0 36 36"
   sodipodi:docname="breeze-close-hover-symbolic.svg"
   inkscape:version="1.4 (e7c3feb100, 2024-10-09)"
   xmlns:inkscape="http://www.inkscape.org/namespaces/inkscape"
   xmlns:sodipodi="http://sodipodi.sourceforge.net/DTD/sodipodi-0.dtd"
   xmlns="http://www.w3.org/2000/svg"
   xmlns:svg="http://www.w3.org/2000/svg">
  <defs
     id="defs1" />
  <sodipodi:namedview
     id="namedview1"
     pagecolor="#ffffff"
     bordercolor="#000000"
     borderopacity="0.25"
     inkscape:showpageshadow="2"
     inkscape:pageopacity="0.0"
     inkscape:pagecheckerboard="0"
     inkscape:deskcolor="#d1d1d1"
     inkscape:zoom="10.791667"
     inkscape:cx="14.965251"
     inkscape:cy="21.081081"
     inkscape:window-width="1920"
     inkscape:window-height="1002"
     inkscape:window-x="0"
     inkscape:window-y="0"
     inkscape:window-maximized="1"
     inkscape:current-layer="svg4" />
  <path
     id="path905"
     class="color"
     d="M 18,0 A 18,18 0 0 0 0,18 18,18 0 0 0 18,36 18,18 0 0 0 36,18 18,18 0 0 0 18,0 Z m -7.293,9.293 7.293,7.293 7.293,-7.293 1.4141,1.4141 -7.293,7.293 7.293,7.293 -1.4141,1.4141 -7.293,-7.293 -7.293,7.293 -1.4141,-1.4141 7.293,-7.293 -7.293,-7.293 z"
     fill="#ffffff"
     stroke-width="2.25" />
  <path
     id="path905-3"
     class="error"
     d="M 18,0 A 18,18 0 0 0 0,18 18,18 0 0 0 18,36 18,18 0 0 0 36,18 18,18 0 0 0 18,0 Z m -7.293,9.293 7.293,7.293 7.293,-7.293 1.4141,1.4141 -7.293,7.293 7.293,7.293 -1.4141,1.4141 -7.293,-7.293 -7.293,7.293 -1.4141,-1.4141 7.293,-7.293 -7.293,-7.293 z"
     fill="#ff0404"
     opacity="0.5"
     stroke-width="2.25" />
</svg>
