<?xml version="1.0" encoding="UTF-8" standalone="no"?>
<svg
   viewBox="0 0 48 48"
   version="1.1"
   id="svg4"
   sodipodi:docname="plasma.svg"
   inkscape:version="1.4 (unknown)"
   xmlns:inkscape="http://www.inkscape.org/namespaces/inkscape"
   xmlns:sodipodi="http://sodipodi.sourceforge.net/DTD/sodipodi-0.dtd"
   xmlns:xlink="http://www.w3.org/1999/xlink"
   xmlns="http://www.w3.org/2000/svg"
   xmlns:svg="http://www.w3.org/2000/svg">
  <sodipodi:namedview
     id="namedview4"
     pagecolor="#ffffff"
     bordercolor="#999999"
     borderopacity="1"
     inkscape:showpageshadow="2"
     inkscape:pageopacity="0"
     inkscape:pagecheckerboard="0"
     inkscape:deskcolor="#d1d1d1"
     inkscape:zoom="7.9583333"
     inkscape:cx="15.141361"
     inkscape:cy="27.706806"
     inkscape:window-width="1920"
     inkscape:window-height="998"
     inkscape:window-x="0"
     inkscape:window-y="0"
     inkscape:window-maximized="1"
     inkscape:current-layer="svg4" />
  <defs
     id="defs4">
    <linearGradient
       id="linearGradient1"
       inkscape:collect="always">
      <stop
         style="stop-color:#8989c3;stop-opacity:1;"
         offset="0"
         id="stop5" />
      <stop
         style="stop-color:#5757aa;stop-opacity:1;"
         offset="1"
         id="stop6" />
    </linearGradient>
    <linearGradient
       id="0"
       x1="99.25"
       y1="56.05"
       x2="99.74"
       y2="28.973"
       gradientUnits="userSpaceOnUse"
       gradientTransform="translate(78.899789,-147.13744)">
      <stop
         stop-color="#197cf1"
         id="stop1" />
      <stop
         offset="1"
         stop-color="#20bcfa"
         id="stop2" />
    </linearGradient>
    <linearGradient
       id="1"
       gradientUnits="userSpaceOnUse"
       y1="59.357464"
       x2="105.93571"
       y2="21.409819"
       x1="106.31267">
      <stop
         stop-color="#212121"
         id="stop3"
         offset="0"
         style="stop-color:#334669;stop-opacity:1;" />
      <stop
         offset="1"
         stop-color="#3f3f41"
         id="stop4"
         style="stop-color:#1c2439;stop-opacity:1;" />
    </linearGradient>
    <linearGradient
       inkscape:collect="always"
       xlink:href="#linearGradient1"
       id="linearGradient6"
       x1="82.915"
       y1="43.525"
       x2="122.915"
       y2="43.525"
       gradientUnits="userSpaceOnUse" />
  </defs>
  <g
     transform="translate(-78.915-19.525)"
     id="g4">
    <circle
       id="circle4"
       fill="url(#1)"
       r="24"
       cy="43.525"
       cx="102.92"
       style="fill:#000000;fill-opacity:0.01;opacity:0.01" />
    <path
       id="path20"
       style="color:#31363b;fill:url(#linearGradient6);fill-opacity:1;stroke-width:1.6577;opacity:1"
       d="m 92.915,23.954623 c -1.38072,0 -2.5,1.10727 -2.5,2.47315 0,1.36589 1.11928,2.47315 2.5,2.47315 1.38072,0 2.5,-1.10726 2.5,-2.47315 0,-1.36588 -1.11928,-2.47315 -2.5,-2.47315 z m 17.5,0 c -3.04692,-1.67301 -6.65998,1.87026 -5,4.9463 l 7.5,7.41945 -7.5,7.41944 c -2.05962,3.40297 2.0155,6.66611 5,4.9463 l 12.5,-12.36574 z m -23.33334,14.83889 c -2.30118,0 -4.16666,1.84545 -4.16666,4.12192 0,2.27646 1.86548,4.12191 4.16666,4.12191 2.30119,0 4.16667,-1.84545 4.16667,-4.12191 0,-2.27647 -1.86548,-4.12192 -4.16667,-4.12192 z M 97.915,53.632403 c -2.76142,0 -5,2.21454 -5,4.9463 0,2.73176 2.23858,4.9463 5,4.9463 2.76142,0 5,-2.21454 5,-4.9463 0,-2.73176 -2.23858,-4.9463 -5,-4.9463 z"
       class="ColorScheme-Text"
       sodipodi:nodetypes="ssssscccccccssssssssss" />
  </g>
</svg>
